<svg xmlns="http://www.w3.org/2000/svg" fill="none" viewBox="62.7 97.07894736842105 1827.705 288.10526315789474" style="max-height: 500px" width="1827.705" height="288.10526315789474">
<rect fill="#F5F5F5" height="476" width="3135"/>
<rect fill="white" height="476" width="3135"/>
<path fill="black" d="M251.478 121.955C253.005 122.785 254.032 123.665 255.233 124.922C255.624 125.325 256.016 125.727 256.419 126.142C257.752 127.605 259.055 129.088 260.354 130.581C262.958 133.566 265.648 136.46 268.369 139.338C269.344 140.373 270.318 141.408 271.291 142.443C271.769 142.951 272.247 143.459 272.739 143.982C274.693 146.066 276.631 148.164 278.566 150.265C281.721 153.691 284.892 157.101 288.073 160.503C293.108 165.889 298.112 171.303 303.108 176.725C307.39 181.371 311.684 186.005 315.999 190.62C316.86 191.543 317.721 192.466 318.582 193.389C320.284 195.213 321.992 197.032 323.703 198.847C324.503 199.701 325.303 200.555 326.103 201.409C326.472 201.798 326.84 202.186 327.22 202.586C329.007 204.502 330.326 206.251 331.431 208.617C328.192 211.873 324.951 215.127 321.707 218.378C320.606 219.482 319.505 220.587 318.406 221.693C316.817 223.29 315.225 224.885 313.633 226.479C312.907 227.211 312.907 227.211 312.166 227.957C309.28 230.843 306.32 233.513 303.121 236.052C301.709 237.359 301.709 237.359 302.036 240.204C302.906 241.411 302.906 241.411 304.174 242.468C304.891 243.12 304.891 243.12 305.621 243.785C306.416 244.489 306.416 244.489 307.226 245.208C312.892 250.373 318.355 255.705 323.761 261.139C324.525 261.906 325.289 262.673 326.053 263.44C327.848 265.242 329.64 267.046 331.431 268.852C330.31 271.214 329.154 272.736 327.251 274.545C324.783 276.898 322.556 279.398 320.323 281.97C318.043 284.56 315.664 287.055 313.289 289.557C308.628 294.487 304.003 299.447 299.41 304.44C297.623 306.383 295.834 308.323 294.044 310.263C293.505 310.848 293.505 310.848 292.954 311.444C289.662 315.009 286.347 318.552 283.033 322.096C280.411 324.902 277.804 327.722 275.213 330.556C271.758 334.333 268.269 338.078 264.772 341.817C260.515 346.369 256.286 350.947 252.064 355.531C249.786 355.085 248.299 354.368 246.435 352.997C245.919 352.622 245.404 352.246 244.873 351.859C244.321 351.45 243.769 351.04 243.2 350.618C242.618 350.193 242.036 349.767 241.437 349.329C239.587 347.973 237.741 346.61 235.897 345.247C234.727 344.385 233.556 343.523 232.386 342.662C230.643 341.378 228.9 340.094 227.158 338.807C223.23 335.909 219.283 333.039 215.32 330.188C210.766 326.912 206.237 323.605 201.725 320.272C195.024 315.324 188.277 310.444 181.515 305.58C174.162 300.29 166.833 294.971 159.547 289.589C155.619 286.692 151.673 283.823 147.711 280.972C142.565 277.27 137.455 273.522 132.356 269.756C127.89 266.461 123.395 263.206 118.889 259.966C114.209 256.596 109.57 253.171 104.938 249.735C100.698 246.603 96.3841 243.608 91.9892 240.697C91.4616 240.292 90.9339 239.887 90.3903 239.469C90.3903 238.984 90.3903 238.5 90.3903 238C92.1557 236.653 93.9297 235.391 95.7641 234.144C96.919 233.344 98.073 232.544 99.2261 231.742C99.8293 231.323 100.432 230.904 101.054 230.472C104.011 228.392 106.915 226.242 109.819 224.089C114.345 220.739 118.888 217.415 123.46 214.127C128.014 210.85 132.543 207.543 137.055 204.21C142.109 200.477 147.189 196.783 152.29 193.114C156.295 190.228 160.275 187.31 164.246 184.377C171.487 179.029 178.786 173.763 186.093 168.507C192.9 163.609 199.679 158.676 206.424 153.694C210.351 150.796 214.298 147.928 218.259 145.077C222.858 141.768 227.433 138.43 231.993 135.069C232.86 134.432 232.86 134.432 233.745 133.782C236.538 131.728 239.314 129.659 242.063 127.548C242.566 127.166 243.069 126.784 243.588 126.391C244.529 125.676 245.464 124.954 246.392 124.223C249.426 121.934 249.426 121.934 251.478 121.955Z"/>
<path fill="white" d="M247.655 152.79C250.096 153.603 250.615 154.205 252.216 156.133C254.929 159.328 257.768 162.376 260.653 165.416C265.314 170.345 269.939 175.305 274.532 180.298C276.319 182.241 278.108 184.181 279.898 186.121C280.255 186.509 280.612 186.897 280.979 187.296C283.001 189.488 285.036 191.666 287.086 193.831C287.54 194.313 287.995 194.795 288.464 195.292C289.337 196.216 290.212 197.138 291.09 198.058C294.015 201.159 296.603 204.426 299.096 207.883C295.473 211.58 291.815 215.171 287.872 218.528C286.66 219.586 285.523 220.689 284.399 221.84C281.958 221.026 281.441 220.427 279.84 218.5C277.113 215.287 274.256 212.224 271.355 209.168C267.931 205.548 264.519 201.92 261.158 198.242C260.534 197.561 259.91 196.88 259.266 196.178C258.145 194.954 257.028 193.726 255.915 192.494C254.529 190.961 253.136 189.436 251.742 187.912C251.308 187.426 250.873 186.941 250.425 186.441C250.012 185.992 249.599 185.542 249.173 185.08C248.809 184.678 248.445 184.276 248.07 183.862C246.683 182.711 245.775 182.339 243.98 182.173C242.111 183.36 240.462 184.557 238.744 185.938C237.685 186.76 236.625 187.582 235.564 188.402C235.014 188.831 234.464 189.259 233.897 189.7C231.209 191.767 228.456 193.742 225.7 195.716C224.583 196.52 223.467 197.323 222.35 198.127C221.232 198.93 220.113 199.734 218.994 200.537C211.642 205.824 204.316 211.143 197.032 216.523C192.501 219.866 187.943 223.169 183.373 226.458C178.076 230.274 172.811 234.132 167.553 238C168.509 240.869 170.254 241.786 172.651 243.417C173.597 244.077 174.542 244.737 175.487 245.397C176.242 245.922 176.242 245.922 177.013 246.457C179.683 248.323 182.321 250.232 184.96 252.14C185.514 252.54 186.068 252.94 186.639 253.352C191.296 256.719 195.922 260.126 200.544 263.54C204.471 266.438 208.419 269.307 212.38 272.157C216.979 275.466 221.554 278.804 226.114 282.166C226.692 282.591 227.27 283.015 227.866 283.453C230.658 285.506 233.435 287.575 236.184 289.687C236.687 290.069 237.19 290.451 237.709 290.844C238.65 291.559 239.585 292.281 240.513 293.011C242.788 294.771 242.788 294.771 245.53 295.348C247.498 294.235 248.883 292.832 250.456 291.21C251.35 290.3 251.35 290.3 252.262 289.371C253.798 287.749 255.272 286.079 256.737 284.393C259.376 281.358 262.114 278.429 264.878 275.509C268.762 271.39 272.6 267.247 276.315 262.975C271.606 257.424 266.853 251.88 261.617 246.815C258.528 247.989 256.644 250.289 254.498 252.691C254.114 253.114 253.73 253.537 253.335 253.973C252.172 255.256 251.015 256.544 249.859 257.833C249.177 258.588 248.495 259.343 247.813 260.097C246.286 261.788 244.764 263.481 243.245 265.179C239.347 263.974 236.396 261.498 233.187 259.073C231.939 258.142 230.692 257.211 229.443 256.281C228.809 255.807 228.174 255.333 227.52 254.845C224.006 252.237 220.448 249.69 216.893 247.138C213.396 244.624 209.938 242.065 206.501 239.469C207.468 237.236 208.344 236.037 210.357 234.677C210.844 234.342 211.331 234.006 211.833 233.661C212.363 233.305 212.892 232.949 213.437 232.583C214.571 231.803 215.704 231.021 216.836 230.238C217.429 229.829 218.022 229.42 218.633 228.998C221.719 226.837 224.742 224.59 227.767 222.345C232.389 218.922 237.026 215.536 241.776 212.29C244.775 213.478 246.776 215.628 248.987 217.891C249.351 218.256 249.715 218.62 250.09 218.996C252.068 220.995 253.948 223.044 255.77 225.185C259.79 229.82 264.238 234.057 268.599 238.367C278.511 248.164 278.511 248.164 282.362 252.693C285.316 256.024 288.539 259.108 291.702 262.241C292.422 262.957 293.142 263.673 293.862 264.39C295.605 266.124 297.35 267.856 299.096 269.586C296.717 272.861 294.364 275.966 291.426 278.769C288.898 281.189 286.602 283.74 284.311 286.381C282.017 288.986 279.623 291.494 277.234 294.011C273.165 298.313 269.132 302.64 265.143 307.015C263.585 308.717 262.013 310.405 260.435 312.088C259.746 312.822 259.746 312.822 259.044 313.571C258.153 314.52 257.261 315.468 256.368 316.416C253.852 319.096 251.45 321.832 249.124 324.679C245.411 323.486 242.578 321.275 239.479 318.986C238.901 318.564 238.323 318.142 237.727 317.706C235.889 316.362 234.055 315.012 232.222 313.661C231.053 312.8 229.884 311.939 228.714 311.078C226.97 309.793 225.226 308.508 223.484 307.221C219.556 304.322 215.608 301.453 211.646 298.602C206.5 294.9 201.389 291.152 196.291 287.385C192.363 284.488 188.417 281.619 184.455 278.769C179.309 275.066 174.199 271.318 169.1 267.552C165.173 264.654 161.226 261.786 157.264 258.935C152.56 255.549 147.876 252.135 143.21 248.697C142.644 248.281 142.079 247.864 141.496 247.435C137.921 244.796 134.36 242.14 130.809 239.469C132.146 236.487 133.984 235.108 136.642 233.317C137.579 232.667 138.516 232.016 139.452 231.363C139.956 231.014 140.459 230.664 140.978 230.304C143.809 228.311 146.583 226.242 149.364 224.181C153.937 220.801 158.527 217.447 163.143 214.127C167.697 210.85 172.226 207.543 176.739 204.21C183.98 198.863 191.279 193.597 198.586 188.34C204.801 183.868 210.998 179.375 217.157 174.827C222.823 170.644 228.514 166.496 234.237 162.391C236.307 160.906 238.361 159.402 240.404 157.88C240.877 157.532 241.35 157.183 241.838 156.824C242.722 156.172 243.602 155.515 244.476 154.851C245.654 153.99 245.654 153.99 247.655 152.79Z"/>
<path fill="black" d="M1034.71 190.253C1042.71 190.253 1050.72 190.253 1058.96 190.253C1058.96 221.524 1058.96 252.794 1058.96 285.012C1050.96 285.012 1042.96 285.012 1034.71 285.012C1034.47 282.103 1034.23 279.195 1033.98 276.197C1033.07 276.97 1032.16 277.743 1031.22 278.539C1021.24 286.276 1009.41 287.311 997.233 286.481C994.355 286.07 991.84 285.366 989.149 284.278C988.427 283.991 987.705 283.704 986.962 283.408C978.72 279.727 973.096 274.088 969.393 265.859C965.776 256.389 965.966 245.329 969.307 235.796C973.414 226.697 979.12 221.663 988.116 217.598C993.677 215.597 998.917 214.962 1004.81 214.999C1005.49 215.002 1006.17 215.006 1006.86 215.01C1018.1 215.202 1025.8 218.829 1034.71 225.512C1034.71 213.877 1034.71 202.241 1034.71 190.253Z"/>
<path fill="black" d="M780.099 221.857C786.98 227.364 791.393 234.429 792.936 243.142C793.957 254.22 793.21 264.73 786.256 273.836C779.755 281.371 771.203 285.755 761.24 286.617C750.109 287.275 738.87 286.109 729.736 279.136C729.164 278.546 729.164 278.546 728.579 277.945C727.484 276.74 727.484 276.74 725.327 276.198C725.327 287.348 725.327 298.499 725.327 309.988C717.567 309.988 709.806 309.988 701.811 309.988C701.811 279.202 701.811 248.416 701.811 216.698C709.571 216.698 717.331 216.698 725.327 216.698C725.327 219.606 725.327 222.515 725.327 225.512C726.373 224.74 727.419 223.967 728.496 223.171C743.361 212.818 764.852 211.323 780.099 221.857Z"/>
<path fill="black" d="M462.699 188.554C463.668 188.558 464.637 188.562 465.636 188.565C482.501 188.767 498.614 192.276 511.336 204.029C513.96 206.718 516.1 209.45 517.815 212.795C518.113 213.359 518.41 213.922 518.716 214.502C519.891 217.557 520.388 220.834 521.03 224.043C512.057 224.043 503.084 224.043 493.84 224.043C492.627 221.862 491.414 219.68 490.165 217.432C485.036 211.714 476.826 209.002 469.285 208.499C457.815 208.085 457.815 208.085 446.807 210.821C446.171 211.088 445.534 211.355 444.878 211.63C436.986 215.269 433.148 219.601 429.905 227.716C427.194 235.695 428.117 244.564 431.642 252.135C436.043 259.548 442.715 263.322 450.757 265.776C464.021 268.774 477.077 266.627 488.558 259.486C490.858 257.265 490.858 257.265 493.84 251.222C502.812 251.222 511.785 251.222 521.03 251.222C518.856 262.087 515.119 269.488 505.979 276.034C504.174 277.162 502.347 278.165 500.454 279.136C499.861 279.459 499.269 279.782 498.659 280.114C479.818 289.632 453.945 288.852 434.314 282.533C422.039 278.175 411.79 270.181 405.654 258.568C400.997 247.051 399.574 232.136 404.184 220.37C404.602 219.295 404.602 219.295 405.028 218.198C409.93 207.167 419.654 198.655 430.68 193.992C441.22 190.094 451.496 188.505 462.699 188.554Z"/>
<path fill="black" d="M1106 190.253C1115.45 190.253 1124.91 190.253 1134.66 190.253C1140.12 201.499 1145.54 212.75 1150.78 224.099C1153.05 229.003 1155.33 233.899 1157.63 238.786C1157.9 239.351 1158.16 239.916 1158.44 240.498C1159.75 243.27 1161.06 246.042 1162.37 248.812C1162.85 249.827 1163.32 250.842 1163.8 251.856C1164.02 252.311 1164.23 252.765 1164.46 253.233C1165.86 256.209 1167.18 259.211 1168.46 262.241C1170.7 259.566 1172.05 256.599 1173.52 253.466C1173.8 252.886 1174.07 252.305 1174.35 251.707C1175.26 249.802 1176.15 247.895 1177.05 245.988C1177.68 244.662 1178.3 243.337 1178.93 242.011C1180.53 238.632 1182.12 235.251 1183.71 231.869C1184.85 229.443 1186 227.017 1187.14 224.592C1189.37 219.861 1191.6 215.129 1193.82 210.396C1194.04 209.925 1194.27 209.453 1194.49 208.967C1195.5 206.822 1196.51 204.678 1197.52 202.533C1198.47 200.505 1199.43 198.478 1200.38 196.451C1200.78 195.605 1200.78 195.605 1201.18 194.741C1202.92 191.072 1202.92 191.072 1203.73 190.253C1205.59 190.188 1207.42 190.168 1209.27 190.181C1210.1 190.183 1210.1 190.183 1210.95 190.185C1212.72 190.189 1214.5 190.198 1216.27 190.207C1217.47 190.211 1218.67 190.214 1219.87 190.217C1222.82 190.225 1225.77 190.238 1228.72 190.253C1227.56 194.153 1225.85 197.634 1224.02 201.246C1223.7 201.878 1223.38 202.511 1223.05 203.163C1222.37 204.513 1221.69 205.862 1221.01 207.211C1219.23 210.728 1217.46 214.251 1215.69 217.774C1215.17 218.804 1215.17 218.804 1214.64 219.855C1212.24 224.654 1209.88 229.471 1207.59 234.327C1204.07 241.784 1200.38 249.149 1196.67 256.516C1192.85 264.129 1189.09 271.767 1185.46 279.476C1185.16 280.107 1184.87 280.738 1184.56 281.388C1184.3 281.933 1184.05 282.478 1183.78 283.04C1183.16 284.278 1183.16 284.278 1182.42 285.012C1180.2 285.078 1177.99 285.097 1175.76 285.084C1175.09 285.083 1174.42 285.082 1173.74 285.081C1171.59 285.077 1169.45 285.068 1167.31 285.058C1165.86 285.055 1164.42 285.051 1162.97 285.048C1159.41 285.04 1155.85 285.027 1152.29 285.012C1147.97 276.449 1143.68 267.877 1139.57 259.211C1136.43 252.586 1133.17 246.02 1129.88 239.469C1126.29 232.324 1122.76 225.152 1119.34 217.924C1116.08 211.065 1112.67 204.283 1109.24 197.505C1108.82 196.667 1108.4 195.828 1107.96 194.965C1107.58 194.214 1107.2 193.464 1106.81 192.691C1106 190.988 1106 190.988 1106 190.253Z"/>
<path fill="black" d="M1721.09 217.432C1721.75 217.628 1722.4 217.824 1723.08 218.026C1731.11 220.796 1737.4 226.642 1741.23 234.144C1744.44 241.298 1745.34 247.817 1745.34 255.63C1723.76 255.63 1702.17 255.63 1679.94 255.63C1682.87 262.226 1685.06 266.015 1691.69 268.852C1699.41 271.423 1707.81 270.641 1715.22 267.48C1716.72 266.757 1716.72 266.757 1717.52 265.508C1719.66 263.843 1721.97 264.174 1724.57 264.229C1725.12 264.232 1725.67 264.236 1726.24 264.239C1728 264.251 1729.76 264.279 1731.52 264.307C1732.71 264.318 1733.9 264.328 1735.1 264.337C1738.02 264.361 1740.95 264.399 1743.87 264.445C1742.94 270.738 1739.71 275.164 1734.64 278.998C1720.97 287.773 1701.93 288.444 1686.32 285.609C1675.55 283 1666.59 278.029 1660.09 268.852C1655.24 259.408 1654.18 249.615 1657.13 239.329C1660.68 229.679 1667.47 223.489 1676.62 219.223C1690.04 213.727 1707.26 213.022 1721.09 217.432Z"/>
<path fill="black" d="M1288.25 217.432C1288.9 217.628 1289.56 217.824 1290.23 218.026C1298.26 220.796 1304.56 226.642 1308.38 234.144C1311.6 241.298 1312.5 247.817 1312.5 255.63C1290.91 255.63 1269.33 255.63 1247.09 255.63C1250.03 262.226 1252.21 266.015 1258.85 268.852C1266.57 271.423 1274.97 270.641 1282.38 267.48C1283.88 266.757 1283.88 266.757 1284.67 265.508C1286.81 263.843 1289.13 264.174 1291.72 264.229C1292.27 264.232 1292.82 264.236 1293.39 264.239C1295.15 264.251 1296.91 264.279 1298.67 264.307C1299.87 264.318 1301.06 264.328 1302.25 264.337C1305.18 264.361 1308.1 264.399 1311.03 264.445C1310.1 270.738 1306.87 275.164 1301.79 278.998C1288.13 287.773 1269.09 288.444 1253.48 285.609C1242.71 283 1233.74 278.029 1227.25 268.852C1222.4 259.408 1221.34 249.615 1224.29 239.329C1227.83 229.679 1234.63 223.489 1243.78 219.223C1257.19 213.727 1274.42 213.022 1288.25 217.432Z"/>
<path fill="black" d="M934.033 217.432C934.689 217.628 935.344 217.824 936.02 218.026C944.05 220.796 950.344 226.642 954.171 234.144C957.386 241.298 958.284 247.817 958.284 255.63C936.701 255.63 915.117 255.63 892.88 255.63C895.813 262.226 897.999 266.015 904.638 268.852C912.355 271.423 920.756 270.641 928.163 267.48C929.663 266.757 929.663 266.757 930.462 265.508C932.602 263.843 934.913 264.174 937.509 264.229C938.061 264.232 938.612 264.236 939.181 264.239C940.94 264.251 942.7 264.279 944.459 264.307C945.653 264.318 946.847 264.328 948.04 264.337C950.965 264.361 953.89 264.399 956.814 264.445C955.884 270.738 952.657 275.164 947.583 278.998C933.917 287.773 914.877 288.444 899.264 285.609C888.496 283 879.531 278.029 873.038 268.852C868.188 259.408 867.124 249.615 870.076 239.329C873.62 229.679 880.418 223.489 889.567 219.223C902.982 213.727 920.205 213.022 934.033 217.432Z"/>
<path fill="black" d="M594.518 216.698C603.491 216.698 612.464 216.698 621.709 216.698C627.107 226.556 632.461 236.435 637.754 246.349C640.205 250.935 642.678 255.504 645.225 260.037C646.926 257.896 648.196 255.741 649.411 253.294C649.788 252.536 650.166 251.779 650.555 250.999C650.957 250.185 651.359 249.372 651.773 248.534C652.399 247.276 652.399 247.276 653.038 245.993C654.145 243.769 655.25 241.544 656.353 239.319C657.908 236.18 659.467 233.043 661.028 229.907C661.858 228.239 662.687 226.57 663.513 224.899C664.076 223.767 664.076 223.767 664.651 222.611C664.98 221.946 665.31 221.282 665.649 220.597C666.537 218.901 666.537 218.901 668.006 216.698C669.883 216.501 671.58 216.442 673.455 216.482C673.991 216.485 674.527 216.489 675.08 216.492C676.795 216.504 678.509 216.532 680.224 216.56C681.385 216.571 682.547 216.581 683.709 216.59C686.559 216.614 689.408 216.652 692.257 216.698C691.329 219.688 690.22 222.367 688.729 225.119C688.319 225.879 687.909 226.64 687.487 227.423C686.824 228.636 686.824 228.636 686.149 229.874C685.688 230.723 685.228 231.573 684.753 232.448C681.46 238.512 678.069 244.518 674.648 250.51C671.611 255.856 668.701 261.262 665.821 266.694C645.736 304.571 645.736 304.571 633.601 308.445C627.284 309.993 621.349 310.253 614.865 310.125C613.882 310.114 612.899 310.104 611.916 310.095C609.546 310.07 607.176 310.03 604.807 309.988C604.807 304.655 604.807 299.322 604.807 293.827C606.09 293.8 607.374 293.772 608.696 293.744C610.385 293.696 612.074 293.647 613.763 293.598C614.608 293.581 615.454 293.564 616.325 293.547C617.142 293.521 617.959 293.495 618.801 293.468C619.927 293.44 619.927 293.44 621.075 293.41C624.755 292.855 627.093 290.969 629.333 288.088C629.718 287.614 630.102 287.14 630.499 286.651C631.564 284.365 631.094 283.04 630.527 280.605C629.626 278.616 629.626 278.616 628.432 276.668C627.994 275.919 627.556 275.17 627.104 274.398C626.627 273.598 626.15 272.798 625.659 271.974C625.159 271.124 624.66 270.274 624.162 269.423C623.127 267.657 622.088 265.893 621.048 264.13C618.666 260.09 616.332 256.022 613.993 251.957C613.085 250.383 612.177 248.81 611.268 247.237C610.815 246.451 610.362 245.665 609.894 244.856C608.665 242.727 607.436 240.598 606.207 238.469C605.448 237.155 604.69 235.841 603.931 234.527C602.979 232.878 602.027 231.229 601.075 229.58C600.234 228.124 599.395 226.667 598.556 225.21C597.875 224.03 597.188 222.853 596.494 221.68C594.518 218.32 594.518 218.32 594.518 216.698Z"/>
<path fill="black" d="M1495.52 216.614C1496.51 216.614 1497.5 216.618 1498.49 216.626C1499.27 216.627 1499.27 216.627 1500.07 216.629C1501.74 216.633 1503.41 216.642 1505.08 216.652C1506.21 216.655 1507.34 216.659 1508.47 216.662C1511.24 216.67 1514.02 216.682 1516.79 216.698C1516.8 217.322 1516.8 217.322 1516.81 217.959C1516.87 222.321 1516.95 226.683 1517.03 231.045C1517.05 232.669 1517.08 234.293 1517.1 235.918C1517.14 238.263 1517.18 240.608 1517.22 242.953C1517.23 243.67 1517.24 244.387 1517.25 245.126C1517.39 251.761 1517.88 258.262 1521.94 263.71C1525.73 267.314 1529.87 268.017 1534.98 268.212C1540.35 267.999 1544.84 266.567 1548.78 262.832C1553.55 256.973 1553.65 249.87 1553.77 242.666C1553.79 241.55 1553.79 241.55 1553.82 240.412C1553.86 238.047 1553.91 235.682 1553.95 233.317C1553.98 231.709 1554.01 230.101 1554.05 228.494C1554.13 224.562 1554.2 220.63 1554.27 216.698C1562.28 216.698 1570.28 216.698 1578.52 216.698C1578.52 239.241 1578.52 261.785 1578.52 285.012C1570.52 285.012 1562.52 285.012 1554.27 285.012C1554.03 281.619 1553.79 278.225 1553.54 274.728C1552.58 275.622 1551.63 276.516 1550.64 277.437C1541.41 285.563 1531.03 287.239 1519.02 286.602C1511.67 286.009 1504.62 282.882 1499.62 277.391C1492.57 268.338 1492.42 257.601 1492.44 246.582C1492.44 245.747 1492.44 244.911 1492.44 244.05C1492.44 242.299 1492.44 240.547 1492.45 238.796C1492.45 236.103 1492.45 233.409 1492.44 230.716C1492.44 229.011 1492.44 227.306 1492.44 225.601C1492.44 224.793 1492.44 223.984 1492.44 223.151C1492.44 222.41 1492.44 221.669 1492.45 220.905C1492.45 220.251 1492.45 219.596 1492.45 218.921C1492.6 216.481 1493.02 216.707 1495.52 216.614Z"/>
<path fill="black" d="M1378.77 215.045C1379.43 215.03 1380.09 215.014 1380.77 214.999C1389.23 214.95 1396.39 217.645 1402.89 223.07C1410.88 231.137 1411.09 242.833 1411.04 253.449C1411.04 254.354 1411.04 255.258 1411.04 256.19C1411.04 259.064 1411.03 261.938 1411.02 264.812C1411.01 266.767 1411.01 268.722 1411.01 270.677C1411 275.455 1410.98 280.234 1410.97 285.012C1402.97 285.012 1394.96 285.012 1386.72 285.012C1386.68 281.255 1386.68 281.255 1386.64 277.423C1386.6 274.974 1386.56 272.526 1386.53 270.078C1386.5 268.387 1386.48 266.697 1386.46 265.006C1386.44 262.564 1386.4 260.123 1386.36 257.681C1386.36 256.936 1386.35 256.19 1386.35 255.422C1386.23 249.603 1385.48 243.894 1382.54 238.78C1377.92 234.664 1372.74 233.354 1366.68 233.435C1361.27 233.861 1356.64 235.402 1352.91 239.469C1348.79 246.061 1348.41 252.112 1348.27 259.69C1348.26 260.416 1348.24 261.143 1348.23 261.891C1348.18 264.196 1348.14 266.501 1348.09 268.806C1348.06 270.375 1348.03 271.944 1348 273.513C1347.92 277.346 1347.84 281.179 1347.77 285.012C1340.01 285.012 1332.25 285.012 1324.25 285.012C1324.25 262.468 1324.25 239.925 1324.25 216.698C1332.01 216.698 1339.78 216.698 1347.77 216.698C1347.77 220.334 1347.77 223.97 1347.77 227.716C1348.26 227.716 1348.74 227.716 1349.24 227.716C1349.41 227.292 1349.57 226.868 1349.75 226.431C1353.44 220.101 1362.48 217.319 1369.18 215.55C1372.37 215.063 1375.55 215.063 1378.77 215.045Z"/>
<path fill="black" d="M1826.32 223.088C1829.22 225.783 1830.87 228.351 1832.06 232.123C1832.09 233.347 1832.09 234.573 1832.06 235.796C1828.67 235.887 1825.28 235.954 1821.9 235.998C1820.75 236.016 1819.6 236.042 1818.44 236.073C1816.79 236.118 1815.13 236.139 1813.47 236.155C1812.96 236.174 1812.45 236.193 1811.92 236.212C1809.04 236.214 1807.97 235.943 1805.8 233.983C1805.25 233.37 1804.7 232.756 1804.13 232.123C1800.87 230.826 1797.08 231.254 1793.61 231.251C1792.93 231.242 1792.25 231.233 1791.55 231.224C1787.61 231.216 1784.34 231.558 1780.62 232.858C1780.62 234.555 1780.62 236.252 1780.62 238C1784.72 239.687 1788.41 240.639 1792.82 241.119C1794.02 241.266 1795.23 241.413 1796.44 241.56C1798.3 241.778 1800.17 241.993 1802.04 242.207C1825.67 244.95 1825.67 244.95 1832.51 252.545C1836.2 257.419 1836.16 262.194 1835.73 268.117C1834.54 273.454 1831.64 277.359 1827.13 280.413C1817.2 285.864 1806.2 286.762 1795.08 286.711C1794.15 286.707 1793.22 286.704 1792.25 286.7C1779.65 286.543 1767.37 284.901 1757.89 275.819C1755.41 272.853 1753.42 269.128 1753.42 265.179C1756.92 265.088 1760.41 265.021 1763.9 264.977C1765.08 264.959 1766.27 264.934 1767.46 264.902C1769.17 264.857 1770.88 264.837 1772.59 264.82C1773.38 264.792 1773.38 264.792 1774.18 264.763C1777.1 264.761 1778.24 265.03 1780.47 266.979C1781 267.597 1781.53 268.215 1782.09 268.852C1786.27 270.557 1790.36 270.567 1794.81 270.551C1795.78 270.568 1795.78 270.568 1796.78 270.586C1801.52 270.59 1805.55 269.704 1810.01 268.117C1810.01 265.936 1810.01 263.754 1810.01 261.506C1809.27 261.406 1808.53 261.307 1807.77 261.204C1804.96 260.825 1802.16 260.442 1799.35 260.058C1798.15 259.894 1796.95 259.731 1795.75 259.569C1764.01 255.291 1764.01 255.291 1757.66 247.108C1754.82 242.516 1755.04 237.337 1755.63 232.123C1757.07 226.505 1761.4 222.907 1766.24 220.046C1782.87 211.76 1811.21 211.376 1826.32 223.088Z"/>
<path fill="black" d="M1435.22 198.333C1443.22 198.333 1451.23 198.333 1459.47 198.333C1459.47 204.394 1459.47 210.454 1459.47 216.698C1467.23 216.698 1474.99 216.698 1482.99 216.698C1482.99 221.788 1482.99 226.879 1482.99 232.123C1475.23 232.123 1467.47 232.123 1459.47 232.123C1459.53 236.451 1459.59 240.777 1459.67 245.103C1459.69 246.574 1459.71 248.046 1459.73 249.517C1459.75 251.634 1459.79 253.751 1459.83 255.868C1459.84 256.524 1459.84 257.18 1459.85 257.855C1459.93 261.323 1460.01 263.929 1462.41 266.648C1464.97 268.054 1467.25 268.325 1470.14 268.421C1470.89 268.45 1471.64 268.478 1472.42 268.508C1473.19 268.53 1473.97 268.553 1474.77 268.576C1475.56 268.605 1476.35 268.633 1477.16 268.663C1479.1 268.732 1481.05 268.794 1482.99 268.852C1483.01 271.408 1483.02 273.963 1483.03 276.519C1483.04 277.249 1483.05 277.978 1483.05 278.73C1483.06 279.423 1483.06 280.117 1483.06 280.832C1483.06 281.474 1483.07 282.116 1483.07 282.778C1482.99 284.278 1482.99 284.278 1482.25 285.012C1480.5 285.096 1478.78 285.133 1477.03 285.136C1476.49 285.138 1475.96 285.141 1475.41 285.143C1474.28 285.147 1473.14 285.149 1472.01 285.149C1470.3 285.15 1468.6 285.163 1466.89 285.177C1457.02 285.215 1447.82 285.066 1440.08 278.218C1436.81 274.669 1435.16 270.061 1435.07 265.298C1435.06 264.577 1435.04 263.857 1435.03 263.114C1435.01 262.338 1435 261.563 1434.99 260.763C1434.97 259.967 1434.96 259.171 1434.94 258.352C1434.89 255.807 1434.85 253.262 1434.81 250.717C1434.78 248.993 1434.74 247.269 1434.71 245.545C1434.63 241.316 1434.56 237.087 1434.49 232.858C1429.39 232.616 1424.3 232.373 1419.05 232.123C1419.05 227.033 1419.05 221.942 1419.05 216.698C1424.39 216.698 1429.72 216.698 1435.22 216.698C1435.22 210.637 1435.22 204.577 1435.22 198.333Z"/>
<path fill="black" d="M814.248 198.333C822.25 198.333 830.253 198.333 838.499 198.333C838.499 204.394 838.499 210.454 838.499 216.698C846.259 216.698 854.019 216.698 862.015 216.698C862.015 221.788 862.015 226.879 862.015 232.123C854.254 232.123 846.494 232.123 838.499 232.123C838.553 236.451 838.614 240.777 838.691 245.103C838.716 246.574 838.737 248.046 838.753 249.517C838.778 251.634 838.816 253.751 838.857 255.868C838.862 256.524 838.867 257.18 838.872 257.855C838.953 261.323 839.041 263.929 841.438 266.648C843.999 268.054 846.277 268.325 849.169 268.421C849.919 268.45 850.67 268.478 851.444 268.508C852.219 268.53 852.994 268.553 853.793 268.576C854.583 268.605 855.372 268.633 856.186 268.663C858.129 268.732 860.072 268.794 862.015 268.852C862.036 271.408 862.049 273.963 862.061 276.519C862.067 277.249 862.073 277.978 862.079 278.73C862.082 279.423 862.084 280.117 862.087 280.832C862.09 281.474 862.094 282.116 862.098 282.778C862.015 284.278 862.015 284.278 861.28 285.012C859.53 285.096 857.803 285.133 856.053 285.136C855.52 285.138 854.987 285.141 854.438 285.143C853.304 285.147 852.169 285.149 851.034 285.149C849.327 285.15 847.621 285.163 845.915 285.177C836.046 285.215 826.847 285.066 819.105 278.218C815.84 274.669 814.182 270.061 814.097 265.298C814.082 264.577 814.067 263.857 814.052 263.114C814.04 262.338 814.028 261.563 814.015 260.763C814 259.967 813.985 259.171 813.969 258.352C813.921 255.807 813.877 253.262 813.834 250.717C813.802 248.993 813.77 247.269 813.738 245.545C813.659 241.316 813.585 237.087 813.513 232.858C808.42 232.616 803.327 232.373 798.08 232.123C798.08 227.033 798.08 221.942 798.08 216.698C803.415 216.698 808.751 216.698 814.248 216.698C814.248 210.637 814.248 204.577 814.248 198.333Z"/>
<path fill="black" d="M1592.49 216.698C1600.25 216.698 1608.01 216.698 1616 216.698C1616 222.031 1616 227.363 1616 232.858C1616.49 232.858 1616.97 232.858 1617.47 232.858C1617.62 232.252 1617.78 231.646 1617.93 231.022C1620.13 225.42 1623.71 221.363 1629.23 218.901C1635.75 216.553 1641.22 216.698 1648.34 216.698C1648.34 223.485 1648.34 230.272 1648.34 237.265C1646.43 237.341 1644.52 237.417 1642.55 237.495C1634.87 237.911 1628.29 238.991 1622.62 244.611C1615.96 253.091 1616.6 263.418 1616.32 273.672C1616.22 277.415 1616.11 281.157 1616 285.012C1608.24 285.012 1600.48 285.012 1592.49 285.012C1592.49 262.468 1592.49 239.925 1592.49 216.698Z"/>
<path fill="black" d="M532.053 216.698C539.814 216.698 547.574 216.698 555.57 216.698C555.57 222.031 555.57 227.363 555.57 232.858C556.055 232.858 556.54 232.858 557.039 232.858C557.191 232.252 557.342 231.646 557.499 231.022C559.7 225.42 563.275 221.363 568.797 218.901C575.315 216.553 580.786 216.698 587.904 216.698C587.904 223.485 587.904 230.272 587.904 237.265C585.995 237.341 584.085 237.417 582.117 237.495C574.439 237.911 567.857 238.991 562.184 244.611C555.529 253.091 556.169 263.418 555.891 273.672C555.785 277.415 555.679 281.157 555.57 285.012C547.809 285.012 540.049 285.012 532.053 285.012C532.053 262.468 532.053 239.925 532.053 216.698Z"/>
<path fill="white" d="M759.132 234.327C763.983 237.612 767.01 241.372 768.363 247.093C769.163 252.415 768.359 257.163 765.392 261.701C761.716 266.242 757.538 268.667 751.783 269.586C744.216 270.198 737.356 269.414 731.252 264.582C727.364 260.901 725.285 256.481 725.097 251.13C725.182 246.453 726.506 242.328 729.512 238.7C737.158 231.46 749.648 229.086 759.132 234.327Z"/>
<path fill="white" d="M1025.16 234.327C1029.85 237.578 1033.33 241.179 1034.71 246.815C1035.61 252.71 1034.45 257.357 1031.04 262.241C1026.83 266.875 1021.87 269.258 1015.65 269.761C1008.78 269.922 1003.52 268.758 997.692 265.087C993.127 260.089 991.435 255.19 991.738 248.419C992.502 243.323 994.536 239.45 998.565 236.21C999.571 235.552 1000.6 234.922 1001.64 234.327C1002.07 234.078 1002.5 233.829 1002.94 233.573C1009.3 230.573 1019.02 230.86 1025.16 234.327Z"/>
<path fill="white" d="M1699.22 230.542C1705.68 230.292 1711.58 231.669 1716.68 235.796C1719.49 238.683 1719.65 239.618 1720.36 243.877C1707.26 243.877 1694.16 243.877 1680.67 243.877C1681.52 239.656 1682.65 237.854 1685.82 235.062C1690.15 232.323 1694.11 230.89 1699.22 230.542Z"/>
<path fill="white" d="M1266.37 230.542C1272.83 230.292 1278.74 231.669 1283.84 235.796C1286.65 238.683 1286.8 239.618 1287.51 243.877C1274.41 243.877 1261.32 243.877 1247.83 243.877C1248.67 239.656 1249.8 237.854 1252.97 235.062C1257.31 232.323 1261.27 230.89 1266.37 230.542Z"/>
<path fill="white" d="M912.159 230.542C918.619 230.292 924.523 231.669 929.624 235.796C932.436 238.683 932.588 239.618 933.298 243.877C920.203 243.877 907.107 243.877 893.615 243.877C894.459 239.656 895.589 237.854 898.759 235.062C903.093 232.323 907.056 230.89 912.159 230.542Z"/>
</svg>