<?xml version="1.0" encoding="UTF-8"?>
<svg version="1.1" xmlns="http://www.w3.org/2000/svg" width="2574" height="484">
<path d="M0 0 C849.42 0 1698.84 0 2574 0 C2574 159.72 2574 319.44 2574 484 C1724.58 484 875.16 484 0 484 C0 324.28 0 164.56 0 0 Z " fill="#000000" transform="translate(0,0)"/>
<path d="M0 0 C2.07724827 1.12893928 3.47532684 2.32701681 5.109375 4.0390625 C5.64175781 4.58691406 6.17414063 5.13476562 6.72265625 5.69921875 C8.53687177 7.69109756 10.31045533 9.70915697 12.078125 11.7421875 C15.62171917 15.8058906 19.28131219 19.74590429 22.984375 23.6640625 C24.31029792 25.07253825 25.63581381 26.48139728 26.9609375 27.890625 C27.61094727 28.58188477 28.26095703 29.27314453 28.93066406 29.98535156 C31.58935157 32.82211966 34.22668608 35.67818047 36.859375 38.5390625 C41.15268297 43.20299493 45.46805007 47.84557555 49.796875 52.4765625 C56.64879487 59.80833232 63.457207 67.1794129 70.25585938 74.56054688 C76.08251335 80.88507248 81.92601918 87.19302526 87.796875 93.4765625 C88.96877429 94.73305026 90.14064942 95.98956056 91.3125 97.24609375 C93.62875661 99.72900153 95.95265556 102.20444529 98.28125 104.67578125 C99.36993621 105.83840633 100.45848421 107.00116085 101.546875 108.1640625 C102.04832031 108.69257813 102.54976563 109.22109375 103.06640625 109.765625 C105.49860509 112.37397194 107.29364038 114.75577495 108.796875 117.9765625 C104.3893565 122.40896709 99.97843608 126.83794896 95.56445312 131.26391602 C94.06613793 132.76723205 92.56872493 134.27144786 91.07226562 135.77661133 C88.90997275 137.9511572 86.74435887 140.1223496 84.578125 142.29296875 C83.59011902 143.28871666 83.59011902 143.28871666 82.58215332 144.30458069 C78.65414657 148.23305097 74.62592658 151.86784717 70.27331543 155.32481384 C68.3525858 157.10436622 68.3525858 157.10436622 68.796875 160.9765625 C69.980599 162.6203017 69.980599 162.6203017 71.70703125 164.05859375 C72.68168335 164.94611328 72.68168335 164.94611328 73.67602539 165.8515625 C74.75678345 166.810625 74.75678345 166.810625 75.859375 167.7890625 C83.5689595 174.82053968 91.00395888 182.0793225 98.359375 189.4765625 C99.39915116 190.52060788 100.43894569 191.56463496 101.47875977 192.60864258 C103.92072337 195.06204815 106.35970661 197.5183924 108.796875 199.9765625 C107.27084085 203.19286391 105.69886729 205.26425549 103.109375 207.7265625 C99.75071907 210.93041064 96.72001144 214.33301197 93.68188477 217.83544922 C90.57835366 221.36063608 87.34180265 224.75742268 84.109375 228.1640625 C77.76717389 234.87537092 71.47303866 241.6271302 65.22363281 248.42480469 C62.79215414 251.06930818 60.35752766 253.7109034 57.921875 256.3515625 C57.18771362 257.14759888 57.18771362 257.14759888 56.4387207 257.9597168 C51.95848901 262.81202937 47.44838819 267.63619707 42.93798828 272.46044922 C39.36998464 276.28042773 35.82357972 280.11842004 32.296875 283.9765625 C27.59574217 289.11950517 22.84846148 294.21759526 18.08935547 299.30688477 C12.29682761 305.50400828 6.54269012 311.73614424 0.796875 317.9765625 C-2.30241151 317.36952099 -4.32652387 316.39310727 -6.86328125 314.52734375 C-7.56453125 314.01623047 -8.26578125 313.50511719 -8.98828125 312.97851562 C-9.73980469 312.42099609 -10.49132812 311.86347656 -11.265625 311.2890625 C-12.05710937 310.70962891 -12.84859375 310.13019531 -13.6640625 309.53320312 C-16.18190487 307.68744624 -18.69300211 305.83280008 -21.203125 303.9765625 C-22.79536931 302.80310909 -24.38781361 301.629927 -25.98046875 300.45703125 C-28.35260665 298.70938545 -30.72418299 296.961005 -33.09399414 295.21020508 C-38.43883531 291.26394251 -43.81092566 287.35781282 -49.203125 283.4765625 C-55.39966914 279.01635297 -61.56288523 274.51396615 -67.703125 269.9765625 C-76.82060866 263.24103191 -86.00253269 256.59792613 -95.203125 249.9765625 C-105.2094507 242.77533906 -115.18252006 235.53400351 -125.09741211 228.20727539 C-130.44148116 224.26249209 -135.81214045 220.35693842 -141.203125 216.4765625 C-148.20527742 211.43648431 -155.15925756 206.33442865 -162.09765625 201.20703125 C-168.17502924 196.72111436 -174.29083266 192.29103746 -180.42260742 187.87988281 C-186.79126661 183.29149154 -193.10346393 178.62883735 -199.4074707 173.95214844 C-205.17687826 169.68798734 -211.04698222 165.6105201 -217.02734375 161.6484375 C-217.74535156 161.09671875 -218.46335937 160.545 -219.203125 159.9765625 C-219.203125 159.3165625 -219.203125 158.6565625 -219.203125 157.9765625 C-216.80080978 156.14329762 -214.38685193 154.42425863 -211.890625 152.7265625 C-210.31906972 151.6385116 -208.74880342 150.54859709 -207.1796875 149.45703125 C-206.35887695 148.88645996 -205.53806641 148.31588867 -204.69238281 147.72802734 C-200.66856214 144.89682986 -196.71705758 141.97004548 -192.765625 139.0390625 C-186.6062485 134.47823111 -180.42428716 129.95277286 -174.203125 125.4765625 C-168.00649297 121.01647978 -161.84328424 116.51407006 -155.703125 111.9765625 C-148.8260894 106.89451172 -141.91279417 101.86653453 -134.97265625 96.87109375 C-129.52228538 92.94264145 -124.10645422 88.96941729 -118.703125 84.9765625 C-108.8491738 77.69696736 -98.91737904 70.52825737 -88.97363281 63.37207031 C-79.71160305 56.70421956 -70.48727607 49.98979211 -61.30883789 43.20727539 C-55.96476799 39.26249146 -50.59406539 35.35700071 -45.203125 31.4765625 C-38.94625029 26.97194241 -32.72030606 22.42780357 -26.515625 17.8515625 C-25.33504517 16.98422485 -25.33504517 16.98422485 -24.13061523 16.09936523 C-20.33101911 13.3042555 -16.55260227 10.48761911 -12.8125 7.61328125 C-12.12760498 7.09330566 -11.44270996 6.57333008 -10.73706055 6.03759766 C-9.45707573 5.06465069 -8.18456988 4.08175559 -6.92114258 3.08740234 C-2.79339927 -0.02971701 -2.79339927 -0.02971701 0 0 Z " fill="#F8F6F5" transform="translate(294.203125,84.0234375)"/>
<path d="M0 0 C3.32161628 1.10720543 4.02805239 1.92641667 6.20703125 4.55078125 C9.89840806 8.90046811 13.76144945 13.04985437 17.6875 17.1875 C24.02970111 23.89880842 30.32383634 30.6505677 36.57324219 37.44824219 C39.00472128 40.09274614 41.43963082 42.73407893 43.875 45.375 C44.36081543 45.90279053 44.84663086 46.43058105 45.34716797 46.97436523 C48.09802247 49.95812242 50.86697018 52.92319923 53.65625 55.87109375 C54.27516113 56.5273877 54.89407227 57.18368164 55.53173828 57.85986328 C56.71939215 59.11798985 57.91023652 60.37311607 59.10498047 61.62451172 C63.08541959 65.84724857 66.60682121 70.29390196 70 75 C65.06991125 80.03279893 60.09137284 84.92216387 54.7265625 89.4921875 C53.07703058 90.93272895 51.52920426 92.43326925 50 94 C46.67929194 92.89309731 45.97477457 92.07665038 43.796875 89.453125 C40.08533554 85.0795061 36.19821739 80.90971187 32.25 76.75 C27.59119808 71.82161873 22.9484665 66.88274225 18.375 61.875 C17.52550781 60.94816406 16.67601562 60.02132812 15.80078125 59.06640625 C14.27465499 57.39945838 12.75426125 55.72781281 11.23974609 54.05029297 C9.35480242 51.96410628 7.45928405 49.88792038 5.5625 47.8125 C4.97065918 47.15169434 4.37881836 46.49088867 3.76904297 45.81005859 C3.20717285 45.19855957 2.64530273 44.58706055 2.06640625 43.95703125 C1.57084229 43.41022705 1.07527832 42.86342285 0.56469727 42.30004883 C-1.322279 40.73223035 -2.55786287 40.22551467 -5 40 C-7.54377685 41.61654884 -9.78716535 43.24623003 -12.125 45.125 C-13.56643054 46.24513584 -15.00918771 47.36356616 -16.453125 48.48046875 C-17.20142578 49.0636084 -17.94972656 49.64674805 -18.72070312 50.24755859 C-22.37927371 53.06045702 -26.12461073 55.74893585 -29.875 58.4375 C-31.394541 59.53123645 -32.91407219 60.62498654 -34.43359375 61.71875 C-35.95571442 62.81252052 -37.47784977 63.90627062 -39 65 C-49.004815 72.19701911 -58.9733904 79.43842787 -68.88549805 86.76269531 C-75.05082647 91.31349061 -81.25396245 95.80966808 -87.47216797 100.2878418 C-94.6802688 105.48156025 -101.84474045 110.7338134 -109 116 C-107.69834121 119.90497637 -105.32374055 121.15423988 -102.0625 123.375 C-100.77555323 124.27273771 -99.48911935 125.17121099 -98.203125 126.0703125 C-97.17541992 126.78429199 -97.17541992 126.78429199 -96.12695312 127.51269531 C-92.49417166 130.05297363 -88.90404309 132.65189588 -85.3125 135.25 C-84.558479 135.79446777 -83.80445801 136.33893555 -83.02758789 136.89990234 C-76.69083433 141.48263185 -70.39599375 146.12102635 -64.10668945 150.76855469 C-58.7623044 154.71359712 -53.39127072 158.61932402 -48 162.5 C-41.74312529 167.00462009 -35.51718106 171.54875893 -29.3125 176.125 C-28.52544678 176.7032251 -27.73839355 177.2814502 -26.92749023 177.87719727 C-23.12789411 180.672307 -19.34947727 183.48894339 -15.609375 186.36328125 C-14.92447998 186.88325684 -14.23958496 187.40323242 -13.53393555 187.93896484 C-12.25395073 188.91191181 -10.98144488 189.89480691 -9.71801758 190.88916016 C-6.62219717 193.28424397 -6.62219717 193.28424397 -2.890625 194.0703125 C-0.21352598 192.55476471 1.67192003 190.64549981 3.8125 188.4375 C5.02873047 187.19806641 5.02873047 187.19806641 6.26953125 185.93359375 C8.35972276 183.72487618 10.36476368 181.45146913 12.359375 179.15625 C15.95026737 175.02572535 19.67581305 171.03718586 23.4375 167.0625 C28.72140283 161.45557236 33.944358 155.81479592 39 150 C32.59258011 142.44253038 26.12494035 134.89510357 19 128 C14.79593614 129.59774399 12.23175741 132.72962755 9.3125 136 C8.79010742 136.57580811 8.26771484 137.15161621 7.72949219 137.74487305 C6.14723607 139.49148493 4.57317466 141.24520924 3 143 C2.07207669 144.02776116 1.14371996 145.05513124 0.21484375 146.08203125 C-1.86236603 148.38309248 -3.93404184 150.68883974 -6 153 C-11.30441354 151.35891398 -15.32039929 147.98864342 -19.6875 144.6875 C-21.38480654 143.41975564 -23.08273921 142.15284921 -24.78125 140.88671875 C-25.64492188 140.24138184 -26.50859375 139.59604492 -27.3984375 138.93115234 C-32.18071056 135.38124807 -37.02214754 131.9135787 -41.86010742 128.44018555 C-46.61788367 125.01794495 -51.3241274 121.53333398 -56 118 C-54.68472791 114.96017053 -53.49276535 113.32830328 -50.75390625 111.4765625 C-50.09076416 111.01983154 -49.42762207 110.56310059 -48.74438477 110.0925293 C-48.02436279 109.60824463 -47.30434082 109.12395996 -46.5625 108.625 C-45.01949755 107.56313634 -43.47788358 106.49925289 -41.9375 105.43359375 C-41.13054687 104.87655762 -40.32359375 104.31952148 -39.4921875 103.74560547 C-35.29192399 100.80361055 -31.17943243 97.74448206 -27.0625 94.6875 C-20.77247653 90.02765996 -14.46256825 85.41913408 -8 81 C-3.91792655 82.61724151 -1.19601937 85.54384801 1.8125 88.625 C2.30814453 89.12128906 2.80378906 89.61757812 3.31445312 90.12890625 C6.00496258 92.85057991 8.56348772 95.63973654 11.04296875 98.5546875 C16.51280915 104.86470865 22.56556564 110.63240561 28.5 116.5 C41.98809317 129.83617579 41.98809317 129.83617579 47.22900391 136.00195312 C51.2488327 140.53714458 55.63446025 144.73570004 59.9375 149 C60.9175531 149.97502386 61.8973724 150.9502828 62.87695312 151.92578125 C65.24902313 154.28616618 67.6234086 156.64416905 70 159 C66.76167484 163.45722611 63.5610234 167.68489511 59.5625 171.5 C56.12223681 174.79454301 52.9974787 178.2681556 49.88061523 181.86328125 C46.75950952 185.40942135 43.50176681 188.82404553 40.25 192.25 C34.71414285 198.10618688 29.22587795 203.99767328 23.796875 209.953125 C21.67781704 212.27074769 19.53806223 214.56802575 17.390625 216.859375 C16.45404053 217.85880127 16.45404053 217.85880127 15.49853516 218.87841797 C14.28611398 220.17046649 13.07233515 221.46124294 11.85693359 222.75048828 C8.43322154 226.39935359 5.16480657 230.12400094 2 234 C-3.05262034 232.37523581 -6.90822251 229.36595353 -11.125 226.25 C-11.91197266 225.67507813 -12.69894531 225.10015625 -13.50976562 224.5078125 C-16.01101398 222.67792059 -18.50618296 220.84000369 -21 219 C-22.59114381 217.82812226 -24.18228962 216.65624722 -25.7734375 215.484375 C-28.14691632 213.73528935 -30.51977718 211.98538823 -32.89111328 210.23339844 C-38.23593079 206.2872962 -43.60789301 202.38118384 -49 198.5 C-56.00215242 193.45992181 -62.95613256 188.35786615 -69.89453125 183.23046875 C-75.23857676 179.28584596 -80.60910781 175.38030944 -86 171.5 C-93.00215242 166.45992181 -99.95613256 161.35786615 -106.89453125 156.23046875 C-112.23857784 152.28584516 -117.60916262 148.38038689 -123 144.5 C-129.40209558 139.89057611 -135.77479041 135.24317092 -142.125 130.5625 C-142.89457031 129.9953125 -143.66414062 129.428125 -144.45703125 128.84375 C-149.32211826 125.25224598 -154.16761016 121.63536832 -159 118 C-157.18006727 113.94027239 -154.67878224 112.06291476 -151.0625 109.625 C-149.78662869 108.73991042 -148.51195308 107.85309553 -147.23828125 106.96484375 C-146.55330566 106.48901855 -145.86833008 106.01319336 -145.16259766 105.52294922 C-141.31029244 102.81007047 -137.53455425 99.99371042 -133.75 97.1875 C-127.52743727 92.58618196 -121.28145872 88.02057946 -115 83.5 C-108.80341727 79.03984469 -102.64023905 74.53740312 -96.5 70 C-86.6460488 62.72040486 -76.71425404 55.55169487 -66.77050781 48.39550781 C-58.31406925 42.30761222 -49.88112958 36.19128778 -41.5 30 C-33.78977062 24.30460315 -26.04587184 18.65884979 -18.2578125 13.0703125 C-15.44175953 11.04823536 -12.64718292 9.00103052 -9.8671875 6.9296875 C-9.22305908 6.45499023 -8.57893066 5.98029297 -7.9152832 5.49121094 C-6.71241192 4.60423404 -5.51523772 3.70945899 -4.32495117 2.80566406 C-2.72265625 1.6328125 -2.72265625 1.6328125 0 0 Z " fill="#000000" transform="translate(289,126)"/>
<path d="M0 0 C10.89 0 21.78 0 33 0 C33 42.57 33 85.14 33 129 C22.11 129 11.22 129 0 129 C-0.33 125.04 -0.66 121.08 -1 117 C-2.2375 118.051875 -3.475 119.10375 -4.75 120.1875 C-18.33186938 130.7203783 -34.42402316 132.12916389 -51 131 C-54.91578277 130.43993011 -58.33844897 129.48151988 -62 128 C-62.98226563 127.60941406 -63.96453125 127.21882813 -64.9765625 126.81640625 C-76.19225847 121.80483577 -83.84396571 114.12796324 -88.8828125 102.92578125 C-93.80531162 90.03434125 -93.54703616 74.97766193 -89 62 C-83.41222416 49.61300639 -75.64687059 42.75957029 -63.40625 37.2265625 C-55.83835937 34.50142757 -48.70803118 33.63676972 -40.6875 33.6875 C-39.76541748 33.69241455 -38.84333496 33.6973291 -37.89331055 33.70239258 C-22.60792353 33.96451996 -12.13178577 38.90116067 0 48 C0 32.16 0 16.32 0 0 Z " fill="#FCFCFC" transform="translate(1360,177)"/>
<path d="M0 0 C9.36370783 7.49689266 15.36850535 17.11521772 17.46875 28.9765625 C18.85863175 44.05816016 17.84226478 58.36492 8.37890625 70.76171875 C-0.46754514 81.01926054 -12.10521526 86.98709145 -25.66259766 88.16113281 C-40.80808442 89.05716289 -56.10203399 87.46934459 -68.53125 77.9765625 C-69.31048828 77.17412109 -69.31048828 77.17412109 -70.10546875 76.35546875 C-71.5964863 74.7147034 -71.5964863 74.7147034 -74.53125 73.9765625 C-74.53125 89.1565625 -74.53125 104.3365625 -74.53125 119.9765625 C-85.09125 119.9765625 -95.65125 119.9765625 -106.53125 119.9765625 C-106.53125 78.0665625 -106.53125 36.1565625 -106.53125 -7.0234375 C-95.97125 -7.0234375 -85.41125 -7.0234375 -74.53125 -7.0234375 C-74.53125 -3.0634375 -74.53125 0.8965625 -74.53125 4.9765625 C-73.108125 3.9246875 -71.685 2.8728125 -70.21875 1.7890625 C-49.99131237 -12.30452592 -20.74667492 -14.33961355 0 0 Z " fill="#FCFCFC" transform="translate(1013.53125,220.0234375)"/>
<path d="M0 0 C1.31871094 0.00491455 2.63742187 0.0098291 3.99609375 0.01489258 C26.94592047 0.28937836 48.87222282 5.06693493 66.18359375 21.06640625 C69.75437039 24.72629318 72.6662906 28.44550263 75 33 C75.40476562 33.76699219 75.80953125 34.53398437 76.2265625 35.32421875 C77.82465383 39.48251762 78.50133959 43.94419794 79.375 48.3125 C67.165 48.3125 54.955 48.3125 42.375 48.3125 C40.725 45.3425 39.075 42.3725 37.375 39.3125 C30.39511585 31.52879042 19.22340127 27.83667981 8.96240234 27.15136719 C-6.64597683 26.58732776 -6.64597683 26.58732776 -21.625 30.3125 C-22.49125 30.67601562 -23.3575 31.03953125 -24.25 31.4140625 C-34.98958203 36.36833397 -40.21172586 42.26525963 -44.625 53.3125 C-48.31336307 64.17456005 -47.05747549 76.24862001 -42.26171875 86.5546875 C-36.27246758 96.64636131 -27.1939107 101.78487536 -16.25 105.125 C1.79881307 109.20580399 19.56522431 106.28302709 35.1875 96.5625 C38.3171444 93.53937939 38.3171444 93.53937939 42.375 85.3125 C54.585 85.3125 66.795 85.3125 79.375 85.3125 C76.41677848 100.10360759 71.33096953 110.17869506 58.89453125 119.08984375 C56.43782261 120.62479843 53.9518797 121.99031057 51.375 123.3125 C50.56933594 123.75207031 49.76367188 124.19164062 48.93359375 124.64453125 C23.29488625 137.60088573 -11.9127361 136.53941555 -38.625 127.9375 C-55.32903984 122.00456408 -69.27492887 111.12169175 -77.625 95.3125 C-83.96173072 79.63339892 -85.89772664 59.32950045 -79.625 43.3125 C-79.05652344 41.84876953 -79.05652344 41.84876953 -78.4765625 40.35546875 C-71.80673822 25.33872565 -58.57355932 13.74987125 -43.5703125 7.40234375 C-29.22783584 2.09524695 -15.2441811 -0.06728816 0 0 Z " fill="#FCFCFC" transform="translate(581.625,174.6875)"/>
<path d="M0 0 C12.87 0 25.74 0 39 0 C46.42964949 15.30958076 53.80555454 30.62659603 60.93969727 46.07592773 C64.02418932 52.75235601 67.12996932 59.41777842 70.265625 66.0703125 C70.62810333 66.83936417 70.99058167 67.60841583 71.36404419 68.40077209 C73.14354784 72.17461375 74.92515165 75.94745442 76.70849609 79.71948242 C77.36037019 81.10073991 78.01222651 82.48200578 78.6640625 83.86328125 C78.95726379 84.48192047 79.25046509 85.10055969 79.55255127 85.73794556 C81.46297065 89.78904267 83.25580633 93.87559195 85 98 C88.04454265 94.35884761 89.89047876 90.31986465 91.88671875 86.0546875 C92.26090439 85.26451736 92.63509003 84.47434723 93.02061462 83.66023254 C94.24723163 81.06717191 95.4673999 78.47113253 96.6875 75.875 C97.53982111 74.06988855 98.39252715 72.2649588 99.24560547 70.46020508 C101.41865428 65.85992055 103.58624643 61.25709029 105.75177002 56.65325928 C107.3055466 53.35052486 108.86132504 50.0487358 110.41714478 46.7469635 C113.45162789 40.30665824 116.48295289 33.86487081 119.51171875 27.421875 C119.81357086 26.77976578 120.11542297 26.13765656 120.42642212 25.47608948 C121.79871688 22.55660704 123.17048899 19.63688059 124.54150391 16.71679688 C125.83820737 13.95610223 127.13742484 11.19660796 128.4375 8.4375 C128.97721436 7.28544067 128.97721436 7.28544067 129.52783203 6.11010742 C131.88574681 1.11425319 131.88574681 1.11425319 133 0 C135.52094076 -0.08847743 138.01430893 -0.11527301 140.53515625 -0.09765625 C141.66503212 -0.09553383 141.66503212 -0.09553383 142.81773376 -0.09336853 C145.2326956 -0.08775376 147.64756601 -0.07519883 150.0625 -0.0625 C151.69596221 -0.0574869 153.32942586 -0.05292366 154.96289062 -0.04882812 C158.97529585 -0.03777954 162.98763241 -0.02050506 167 0 C165.42274596 5.30868968 163.09666012 10.04830578 160.59765625 14.96484375 C160.16426437 15.82606339 159.7308725 16.68728302 159.28434753 17.57460022 C158.35930845 19.41230131 157.43256861 21.24914711 156.50427246 23.08520508 C154.08369386 27.87389694 151.67634132 32.66922047 149.26953125 37.46484375 C148.56538589 38.86722794 148.56538589 38.86722794 147.84701538 40.29794312 C144.57208917 46.83082172 141.3658173 53.38952539 138.25 60 C133.46083126 70.15195433 128.43104249 80.17783121 123.39099121 90.20675659 C118.18449914 100.57015097 113.07440068 110.96881615 108.13476562 121.46289062 C107.72935547 122.32205078 107.32394531 123.18121094 106.90625 124.06640625 C106.55884766 124.80834229 106.21144531 125.55027832 105.85351562 126.31469727 C105 128 105 128 104 129 C100.97022196 129.08871273 97.96332978 129.1151935 94.93359375 129.09765625 C94.02497086 129.0962413 93.11634796 129.09482635 92.18019104 129.09336853 C89.26592779 129.08775193 86.35174019 129.07519665 83.4375 129.0625 C81.46679798 129.05748714 79.49609476 129.05292386 77.52539062 129.04882812 C72.68356441 129.03777711 67.84179505 129.02050138 63 129 C57.12104516 117.34273084 51.2795059 105.67308967 45.6875 93.875 C41.41016789 84.85607439 36.98257309 75.91801435 32.5 67 C27.61080739 57.27294488 22.81447163 47.51010002 18.15698242 37.66943359 C13.7206207 28.33208277 9.07809244 19.09959711 4.41772461 9.87255859 C3.8428833 8.73125488 3.26804199 7.58995117 2.67578125 6.4140625 C2.15927002 5.3926416 1.64275879 4.3712207 1.1105957 3.31884766 C0 1 0 1 0 0 Z " fill="#FCFCFC" transform="translate(1457,177)"/>
<path d="M0 0 C0.89203125 0.26683594 1.7840625 0.53367188 2.703125 0.80859375 C13.63103974 4.57972997 22.19474378 12.53788196 27.40234375 22.75 C31.77775995 32.49005693 33 41.36404798 33 52 C3.63 52 -25.74 52 -56 52 C-52.00882397 60.98014607 -49.0343696 66.13824986 -40 70 C-29.49878516 73.50040495 -18.06768367 72.43561622 -7.98828125 68.1328125 C-5.94686118 67.14833975 -5.94686118 67.14833975 -4.85888672 65.44750977 C-1.9476324 63.18052436 1.19772439 63.63191637 4.73046875 63.70703125 C5.48088943 63.71127609 6.23131012 63.71552094 7.00447083 63.71989441 C9.39918026 63.7366755 11.79304534 63.7743251 14.1875 63.8125 C15.8118368 63.82754765 17.4361868 63.84123591 19.06054688 63.85351562 C23.04068948 63.88657695 27.02020163 63.93835406 31 64 C29.7333856 72.56749461 25.34316308 78.59336849 18.4375 83.8125 C-0.15796042 95.75867458 -26.06762915 96.67121751 -47.3125 92.8125 C-61.96600708 89.26063526 -74.16427387 82.49321625 -83 70 C-89.60029528 57.14334543 -91.04824453 43.81228303 -87.03125 29.80859375 C-82.20781924 16.67205316 -72.95780145 8.24570219 -60.5078125 2.4375 C-42.25267988 -5.04344522 -18.81741996 -6.00390057 0 0 Z " fill="#FCFCFC" transform="translate(2294,214)"/>
<path d="M0 0 C0.89203125 0.26683594 1.7840625 0.53367188 2.703125 0.80859375 C13.63103974 4.57972997 22.19474378 12.53788196 27.40234375 22.75 C31.77775995 32.49005693 33 41.36404798 33 52 C3.63 52 -25.74 52 -56 52 C-52.00882397 60.98014607 -49.0343696 66.13824986 -40 70 C-29.49878516 73.50040495 -18.06768367 72.43561622 -7.98828125 68.1328125 C-5.94686118 67.14833975 -5.94686118 67.14833975 -4.85888672 65.44750977 C-1.9476324 63.18052436 1.19772439 63.63191637 4.73046875 63.70703125 C5.48088943 63.71127609 6.23131012 63.71552094 7.00447083 63.71989441 C9.39918026 63.7366755 11.79304534 63.7743251 14.1875 63.8125 C15.8118368 63.82754765 17.4361868 63.84123591 19.06054688 63.85351562 C23.04068948 63.88657695 27.02020163 63.93835406 31 64 C29.7333856 72.56749461 25.34316308 78.59336849 18.4375 83.8125 C-0.15796042 95.75867458 -26.06762915 96.67121751 -47.3125 92.8125 C-61.96600708 89.26063526 -74.16427387 82.49321625 -83 70 C-89.60029528 57.14334543 -91.04824453 43.81228303 -87.03125 29.80859375 C-82.20781924 16.67205316 -72.95780145 8.24570219 -60.5078125 2.4375 C-42.25267988 -5.04344522 -18.81741996 -6.00390057 0 0 Z " fill="#FCFCFC" transform="translate(1705,214)"/>
<path d="M0 0 C0.89203125 0.26683594 1.7840625 0.53367188 2.703125 0.80859375 C13.63103974 4.57972997 22.19474378 12.53788196 27.40234375 22.75 C31.77775995 32.49005693 33 41.36404798 33 52 C3.63 52 -25.74 52 -56 52 C-52.00882397 60.98014607 -49.0343696 66.13824986 -40 70 C-29.49878516 73.50040495 -18.06768367 72.43561622 -7.98828125 68.1328125 C-5.94686118 67.14833975 -5.94686118 67.14833975 -4.85888672 65.44750977 C-1.9476324 63.18052436 1.19772439 63.63191637 4.73046875 63.70703125 C5.48088943 63.71127609 6.23131012 63.71552094 7.00447083 63.71989441 C9.39918026 63.7366755 11.79304534 63.7743251 14.1875 63.8125 C15.8118368 63.82754765 17.4361868 63.84123591 19.06054688 63.85351562 C23.04068948 63.88657695 27.02020163 63.93835406 31 64 C29.7333856 72.56749461 25.34316308 78.59336849 18.4375 83.8125 C-0.15796042 95.75867458 -26.06762915 96.67121751 -47.3125 92.8125 C-61.96600708 89.26063526 -74.16427387 82.49321625 -83 70 C-89.60029528 57.14334543 -91.04824453 43.81228303 -87.03125 29.80859375 C-82.20781924 16.67205316 -72.95780145 8.24570219 -60.5078125 2.4375 C-42.25267988 -5.04344522 -18.81741996 -6.00390057 0 0 Z " fill="#FCFCFC" transform="translate(1223,214)"/>
<path d="M0 0 C12.21 0 24.42 0 37 0 C44.34500206 13.42049759 51.63118875 26.86920519 58.83422852 40.36621094 C62.16893534 46.60843104 65.53397114 52.82960788 69 59 C71.31494231 56.08572949 73.043385 53.15184073 74.69555664 49.82006836 C75.20941422 48.78897446 75.72327179 47.75788055 76.25270081 46.69554138 C76.7996611 45.58816116 77.3466214 44.48078094 77.91015625 43.33984375 C78.76231972 41.62771446 78.76231972 41.62771446 79.63169861 39.8809967 C81.13795176 36.85370278 82.6409373 33.82483628 84.14202881 30.79498291 C86.25916506 26.52266625 88.38047591 22.25243003 90.50401306 17.98329163 C91.63362915 15.71179376 92.7611051 13.43923011 93.88624573 11.16551208 C94.65230385 9.62359947 94.65230385 9.62359947 95.43383789 8.05053711 C95.88223526 7.14548935 96.33063263 6.24044159 96.7926178 5.30796814 C98 3 98 3 100 0 C102.55395487 -0.26711404 104.86274374 -0.34849029 107.4140625 -0.29296875 C108.14370209 -0.28872391 108.87334167 -0.28447906 109.62509155 -0.28010559 C111.95876759 -0.26329353 114.2915844 -0.22563868 116.625 -0.1875 C118.20571671 -0.17245634 119.78644693 -0.15876738 121.3671875 -0.14648438 C125.24512344 -0.11338201 129.12241598 -0.06158404 133 0 C131.73663701 4.07125173 130.22710863 7.71806631 128.19921875 11.46484375 C127.64121582 12.49963867 127.08321289 13.53443359 126.50830078 14.60058594 C125.60700439 16.2523584 125.60700439 16.2523584 124.6875 17.9375 C124.06085449 19.09411133 123.43420898 20.25072266 122.78857422 21.44238281 C118.30672135 29.69675192 113.69341101 37.87355486 109.0378418 46.03100586 C104.90530557 53.30876812 100.94475384 60.66823478 97.02682495 68.06274414 C69.69591464 119.62651465 69.69591464 119.62651465 53.18188477 124.89990234 C44.58672392 127.00728045 36.51064157 127.36155287 27.6875 127.1875 C26.34962475 127.17239836 25.01173266 127.15871981 23.67382812 127.14648438 C20.44903821 127.11155885 17.22446156 127.05777071 14 127 C14 119.74 14 112.48 14 105 C15.74667969 104.96261719 17.49335937 104.92523438 19.29296875 104.88671875 C21.59116719 104.82105594 23.88934332 104.75460871 26.1875 104.6875 C27.33798828 104.66494141 28.48847656 104.64238281 29.67382812 104.61914062 C30.78564453 104.58369141 31.89746094 104.54824219 33.04296875 104.51171875 C34.57473755 104.47244263 34.57473755 104.47244263 36.13745117 104.43237305 C41.14547762 103.67593681 44.32718502 101.1094345 47.375 97.1875 C47.89835938 96.54167969 48.42171875 95.89585937 48.9609375 95.23046875 C50.41061478 92.11856753 49.77092284 90.31491757 49 87 C47.77325824 84.29234071 47.77325824 84.29234071 46.1484375 81.640625 C45.55224609 80.62097656 44.95605469 79.60132813 44.34179688 78.55078125 C43.69275391 77.46152344 43.04371094 76.37226563 42.375 75.25 C41.69497822 74.09302648 41.01595953 72.93546287 40.33789062 71.77734375 C38.92932676 69.37334852 37.51649359 66.97194227 36.10058594 64.57226562 C32.85983037 59.07165145 29.68331432 53.53397862 26.5 48 C25.26462927 45.85789621 24.0289503 43.71597016 22.79296875 41.57421875 C22.17599121 40.50478027 21.55901367 39.4353418 20.92333984 38.33349609 C19.25096329 35.43496482 17.57838453 32.53655044 15.90567017 29.63821411 C14.87326522 27.84933082 13.84092044 26.06041283 12.80859375 24.27148438 C11.51314052 22.02662364 10.2175743 19.7818281 8.921875 17.53710938 C7.7780992 15.55498363 6.63558177 13.57213093 5.49462891 11.58837891 C4.56706888 9.98204251 3.63304926 8.37939541 2.68896484 6.78271484 C0 2.20923675 0 2.20923675 0 0 Z " fill="#FCFCFC" transform="translate(761,213)"/>
<path d="M0 0 C1.34888732 0.00015905 2.69778075 0.00584927 4.04663086 0.01586914 C5.10991859 0.01799156 5.10991859 0.01799156 6.19468689 0.02015686 C8.46699173 0.02577096 10.73919936 0.03832576 13.01147461 0.05102539 C14.54858257 0.05603858 16.08569206 0.0606018 17.62280273 0.06469727 C21.39823103 0.07574497 25.17358632 0.09301898 28.94897461 0.11352539 C28.96110489 0.96344559 28.96110489 0.96344559 28.97348022 1.83053589 C29.06005078 7.7688303 29.15957209 13.70681085 29.26635742 19.64477539 C29.30445945 21.85598446 29.33934382 24.06725156 29.37084961 26.27856445 C29.41691046 29.47115715 29.47483459 32.66335678 29.53491211 35.85571289 C29.54646332 36.83216766 29.55801453 37.80862244 29.56991577 38.81466675 C29.76079567 47.84697204 30.42261922 56.69657474 35.94897461 64.11352539 C41.11099715 69.02063324 46.73899882 69.97659923 53.69897461 70.24243164 C61.00359974 69.95270492 67.11717962 68.00298668 72.48022461 62.91821289 C78.97147466 54.94226203 79.09731569 45.27221458 79.26538086 35.46508789 C79.29655251 33.94629532 79.29655251 33.94629532 79.32835388 32.39682007 C79.39349059 29.17745441 79.45256693 25.95801045 79.51147461 22.73852539 C79.55469398 20.54971536 79.59830934 18.36091312 79.64233398 16.17211914 C79.74987668 10.81933348 79.84921685 5.46648441 79.94897461 0.11352539 C90.83897461 0.11352539 101.72897461 0.11352539 112.94897461 0.11352539 C112.94897461 30.80352539 112.94897461 61.49352539 112.94897461 93.11352539 C102.05897461 93.11352539 91.16897461 93.11352539 79.94897461 93.11352539 C79.61897461 88.49352539 79.28897461 83.87352539 78.94897461 79.11352539 C77.64959961 80.33040039 76.35022461 81.54727539 75.01147461 82.80102539 C62.44444337 93.86313998 48.32121746 96.14471199 31.9831543 95.27758789 C21.98216838 94.47097933 12.38313965 90.21324792 5.57397461 82.73852539 C-4.01459204 70.41423774 -4.21188359 55.79772914 -4.18383789 40.79711914 C-4.18479462 39.65944595 -4.18575134 38.52177277 -4.18673706 37.34962463 C-4.18741329 34.9655044 -4.18559814 32.58138226 -4.18139648 30.19726562 C-4.17599536 26.53063915 -4.18138315 22.86413269 -4.18774414 19.19750977 C-4.18708414 16.87654595 -4.18580459 14.55558221 -4.18383789 12.23461914 C-4.18586212 11.13371445 -4.18788635 10.03280975 -4.18997192 8.89854431 C-4.18681976 7.88981766 -4.1836676 6.881091 -4.18041992 5.84179688 C-4.17962433 4.95040512 -4.17882874 4.05901337 -4.17800903 3.14060974 C-3.9699347 -0.18095377 -3.39839804 0.12645076 0 0 Z " fill="#FCFCFC" transform="translate(1987.051025390625,212.886474609375)"/>
<path d="M0 0 C0.89525391 -0.020625 1.79050781 -0.04125 2.71289062 -0.0625 C14.22821209 -0.12901449 23.97145013 3.54025215 32.8203125 10.92578125 C43.68394847 21.90698904 43.97317267 37.82964799 43.91015625 52.28125 C43.9087413 53.51290894 43.90732635 54.74456787 43.90586853 56.0135498 C43.90029612 59.92572516 43.88774867 63.83784211 43.875 67.75 C43.86941482 70.4114575 43.86541916 73.07291444 43.86132812 75.734375 C43.85118902 82.23962364 43.83160812 88.74474686 43.8125 95.25 C32.9225 95.25 22.0325 95.25 10.8125 95.25 C10.75642578 90.13564453 10.75642578 90.13564453 10.69921875 84.91796875 C10.65289645 81.58498018 10.60170174 78.25209918 10.55004883 74.91918945 C10.51696701 72.61782466 10.48888399 70.316382 10.46606445 68.01489258 C10.43220908 64.69058302 10.37987883 61.36697645 10.32421875 58.04296875 C10.31782883 57.0279277 10.3114389 56.01288666 10.30485535 54.96708679 C10.14490235 47.04638181 9.12417999 39.27403554 5.125 32.3125 C-1.15787808 26.70885198 -8.21672805 24.92571984 -16.4609375 25.03515625 C-23.82432323 25.61536573 -30.1219928 27.71328283 -35.1875 33.25 C-40.79451611 42.22427306 -41.32207902 50.46129187 -41.50390625 60.77734375 C-41.52468735 61.76626114 -41.54546844 62.75517853 -41.56687927 63.77406311 C-41.63190554 66.91180938 -41.69104018 70.04963446 -41.75 73.1875 C-41.79322991 75.32357563 -41.83684558 77.4596435 -41.88085938 79.59570312 C-41.98825939 84.81372273 -42.0876811 90.0318079 -42.1875 95.25 C-52.7475 95.25 -63.3075 95.25 -74.1875 95.25 C-74.1875 64.56 -74.1875 33.87 -74.1875 2.25 C-63.6275 2.25 -53.0675 2.25 -42.1875 2.25 C-42.1875 7.2 -42.1875 12.15 -42.1875 17.25 C-41.5275 17.25 -40.8675 17.25 -40.1875 17.25 C-39.960625 16.6725 -39.73375 16.095 -39.5 15.5 C-34.47331192 6.88282043 -22.17332424 3.09579576 -13.05859375 0.6875 C-8.70959756 0.02479582 -4.39323041 0.02476804 0 0 Z " fill="#FCFCFC" transform="translate(1828.1875,210.75)"/>
<path d="M0 0 C3.94926553 3.66894188 6.19169857 7.16476127 7.80859375 12.30078125 C7.84940764 13.96694811 7.85692382 15.63481547 7.80859375 17.30078125 C3.20053854 17.42472546 -1.40653906 17.515278 -6.01586914 17.57543945 C-7.58244739 17.60052672 -9.14890924 17.6346054 -10.71508789 17.67797852 C-12.97180934 17.73889351 -15.22697919 17.76704624 -17.484375 17.7890625 C-18.18040329 17.81486893 -18.87643158 17.84067535 -19.59355164 17.86726379 C-23.5125105 17.8695052 -24.97055927 17.50031133 -27.9230957 14.83276367 C-28.67163818 13.99720947 -29.42018066 13.16165527 -30.19140625 12.30078125 C-34.631851 10.53460362 -39.79219651 11.116524 -44.50390625 11.11328125 C-45.42880859 11.10103516 -46.35371094 11.08878906 -47.30664062 11.07617188 C-52.67310001 11.06472953 -57.11790824 11.53030539 -62.19140625 13.30078125 C-62.19140625 15.61078125 -62.19140625 17.92078125 -62.19140625 20.30078125 C-56.60029557 22.59722884 -51.58088777 23.89366316 -45.58984375 24.546875 C-43.94791576 24.74673732 -42.3059887 24.94660736 -40.6640625 25.14648438 C-38.12420917 25.4432965 -35.58394606 25.73626996 -33.04345703 26.02758789 C-0.8780374 29.76213798 -0.8780374 29.76213798 8.4296875 40.1015625 C13.4456032 46.73734899 13.38823887 53.23750354 12.80859375 61.30078125 C11.19153156 68.56567093 7.24313391 73.88171238 1.10546875 78.0390625 C-12.40474956 85.46049194 -27.37450809 86.68273295 -42.50390625 86.61328125 C-43.77484131 86.6083667 -45.04577637 86.60345215 -46.35522461 86.59838867 C-63.50565309 86.38467958 -80.2182323 84.1486698 -93.12109375 71.78515625 C-96.48554562 67.747814 -99.19140625 62.67693852 -99.19140625 57.30078125 C-94.44093273 57.17686249 -89.69140664 57.08629564 -84.93969727 57.02612305 C-83.32462164 57.00103166 -81.70965899 56.96694999 -80.0949707 56.92358398 C-77.76875919 56.86268839 -75.44405266 56.83452001 -73.1171875 56.8125 C-72.0403344 56.77379036 -72.0403344 56.77379036 -70.94172668 56.73429871 C-66.9748174 56.73209665 -65.422425 57.0984735 -62.39404297 59.75048828 C-61.66717285 60.59208496 -60.94030273 61.43368164 -60.19140625 62.30078125 C-54.50286211 64.62249285 -48.92973705 64.63499995 -42.87890625 64.61328125 C-41.54956055 64.63745117 -41.54956055 64.63745117 -40.19335938 64.66210938 C-33.74293638 64.66681428 -28.25801333 63.46141223 -22.19140625 61.30078125 C-22.19140625 58.33078125 -22.19140625 55.36078125 -22.19140625 52.30078125 C-23.19816406 52.16502686 -24.20492187 52.02927246 -25.2421875 51.8894043 C-29.05981106 51.37350223 -32.87667592 50.85215338 -36.69335938 50.3293457 C-38.32988306 50.10590712 -39.96659614 49.8838503 -41.60351562 49.66333008 C-84.79250546 43.84024453 -84.79250546 43.84024453 -93.43359375 32.69921875 C-97.29001939 26.44914962 -96.98825904 19.39775139 -96.19140625 12.30078125 C-94.22693796 4.65163285 -88.33982461 -0.24606751 -81.75390625 -4.140625 C-59.12524958 -15.42127974 -20.56152804 -15.94343083 0 0 Z " fill="#FCFCFC" transform="translate(2437.19140625,221.69921875)"/>
<path d="M0 0 C10.89 0 21.78 0 33 0 C33 8.25 33 16.5 33 25 C43.56 25 54.12 25 65 25 C65 31.93 65 38.86 65 46 C54.44 46 43.88 46 33 46 C33.07404766 51.89061888 33.15692078 57.7797326 33.26245117 63.66967773 C33.29566727 65.67252764 33.32370952 67.6754704 33.34643555 69.6784668 C33.38004234 72.56078594 33.43236148 75.44225668 33.48828125 78.32421875 C33.49467117 79.21711105 33.5010611 80.11000336 33.50764465 81.029953 C33.61881479 85.75042779 33.73801122 89.29878552 37 93 C40.48412033 94.91363357 43.58436064 95.28215734 47.51953125 95.4140625 C48.54111328 95.45273437 49.56269531 95.49140625 50.61523438 95.53125 C51.67033203 95.5621875 52.72542969 95.593125 53.8125 95.625 C54.88693359 95.66367187 55.96136719 95.70234375 57.06835938 95.7421875 C59.71207088 95.83618613 62.3557805 95.92184573 65 96 C65.02887814 99.47914941 65.04675687 102.95826831 65.0625 106.4375 C65.07087891 107.43072266 65.07925781 108.42394531 65.08789062 109.44726562 C65.09111328 110.39150391 65.09433594 111.33574219 65.09765625 112.30859375 C65.10289307 113.18314209 65.10812988 114.05769043 65.11352539 114.95874023 C65 117 65 117 64 118 C61.61915814 118.11360982 59.26854056 118.16418713 56.88671875 118.16796875 C56.16192825 118.17129715 55.43713776 118.17462555 54.69038391 118.17805481 C53.14605342 118.18313331 51.60171188 118.18546285 50.05737305 118.18530273 C47.73531827 118.18745566 45.41376529 118.20550567 43.09179688 118.22460938 C29.66282649 118.27571439 17.14471363 118.07330852 6.609375 108.75 C2.16625451 103.91864568 -0.08862722 97.64628761 -0.20532227 91.16137695 C-0.22526749 90.1805867 -0.24521271 89.19979645 -0.26576233 88.18928528 C-0.28247482 87.13295395 -0.29918732 86.07662262 -0.31640625 84.98828125 C-0.33718735 83.90491989 -0.35796844 82.82155853 -0.37937927 81.70536804 C-0.44481797 78.24114384 -0.50373353 74.7768432 -0.5625 71.3125 C-0.60569061 68.96548685 -0.64930507 66.61848147 -0.69335938 64.27148438 C-0.80049361 58.51440146 -0.90177727 52.75724158 -1 47 C-7.93 46.67 -14.86 46.34 -22 46 C-22 39.07 -22 32.14 -22 25 C-14.74 25 -7.48 25 0 25 C0 16.75 0 8.5 0 0 Z " fill="#FCFCFC" transform="translate(1905,188)"/>
<path d="M0 0 C10.89 0 21.78 0 33 0 C33 8.25 33 16.5 33 25 C43.56 25 54.12 25 65 25 C65 31.93 65 38.86 65 46 C54.44 46 43.88 46 33 46 C33.07404766 51.89061888 33.15692078 57.7797326 33.26245117 63.66967773 C33.29566727 65.67252764 33.32370952 67.6754704 33.34643555 69.6784668 C33.38004234 72.56078594 33.43236148 75.44225668 33.48828125 78.32421875 C33.49467117 79.21711105 33.5010611 80.11000336 33.50764465 81.029953 C33.61881479 85.75042779 33.73801122 89.29878552 37 93 C40.48412033 94.91363357 43.58436064 95.28215734 47.51953125 95.4140625 C48.54111328 95.45273437 49.56269531 95.49140625 50.61523438 95.53125 C51.67033203 95.5621875 52.72542969 95.593125 53.8125 95.625 C54.88693359 95.66367187 55.96136719 95.70234375 57.06835938 95.7421875 C59.71207088 95.83618613 62.3557805 95.92184573 65 96 C65.02887814 99.47914941 65.04675687 102.95826831 65.0625 106.4375 C65.07087891 107.43072266 65.07925781 108.42394531 65.08789062 109.44726562 C65.09111328 110.39150391 65.09433594 111.33574219 65.09765625 112.30859375 C65.10289307 113.18314209 65.10812988 114.05769043 65.11352539 114.95874023 C65 117 65 117 64 118 C61.61915814 118.11360982 59.26854056 118.16418713 56.88671875 118.16796875 C56.16192825 118.17129715 55.43713776 118.17462555 54.69038391 118.17805481 C53.14605342 118.18313331 51.60171188 118.18546285 50.05737305 118.18530273 C47.73531827 118.18745566 45.41376529 118.20550567 43.09179688 118.22460938 C29.66282649 118.27571439 17.14471363 118.07330852 6.609375 108.75 C2.16625451 103.91864568 -0.08862722 97.64628761 -0.20532227 91.16137695 C-0.22526749 90.1805867 -0.24521271 89.19979645 -0.26576233 88.18928528 C-0.28247482 87.13295395 -0.29918732 86.07662262 -0.31640625 84.98828125 C-0.33718735 83.90491989 -0.35796844 82.82155853 -0.37937927 81.70536804 C-0.44481797 78.24114384 -0.50373353 74.7768432 -0.5625 71.3125 C-0.60569061 68.96548685 -0.64930507 66.61848147 -0.69335938 64.27148438 C-0.80049361 58.51440146 -0.90177727 52.75724158 -1 47 C-7.93 46.67 -14.86 46.34 -22 46 C-22 39.07 -22 32.14 -22 25 C-14.74 25 -7.48 25 0 25 C0 16.75 0 8.5 0 0 Z " fill="#FCFCFC" transform="translate(1060,188)"/>
<path d="M0 0 C10.56 0 21.12 0 32 0 C32 7.26 32 14.52 32 22 C32.66 22 33.32 22 34 22 C34.20625 21.175 34.4125 20.35 34.625 19.5 C37.62078501 11.87436543 42.48569526 6.35097373 50 3 C58.86847692 -0.19677656 66.31395628 0 76 0 C76 9.24 76 18.48 76 28 C73.40125 28.103125 70.8025 28.20625 68.125 28.3125 C57.67713756 28.87832248 48.71977283 30.3490002 41 38 C31.94446851 49.5440745 32.81624576 63.60271009 32.4375 77.5625 C32.293125 82.656875 32.14875 87.75125 32 93 C21.44 93 10.88 93 0 93 C0 62.31 0 31.62 0 0 Z " fill="#FCFCFC" transform="translate(2119,213)"/>
<path d="M0 0 C10.56 0 21.12 0 32 0 C32 7.26 32 14.52 32 22 C32.66 22 33.32 22 34 22 C34.20625 21.175 34.4125 20.35 34.625 19.5 C37.62078501 11.87436543 42.48569526 6.35097373 50 3 C58.86847692 -0.19677656 66.31395628 0 76 0 C76 9.24 76 18.48 76 28 C73.40125 28.103125 70.8025 28.20625 68.125 28.3125 C57.67713756 28.87832248 48.71977283 30.3490002 41 38 C31.94446851 49.5440745 32.81624576 63.60271009 32.4375 77.5625 C32.293125 82.656875 32.14875 87.75125 32 93 C21.44 93 10.88 93 0 93 C0 62.31 0 31.62 0 0 Z " fill="#FCFCFC" transform="translate(676,213)"/>
<path d="M0 0 C6.60112707 4.47173124 10.720993 9.59086622 12.5625 17.37890625 C13.65097521 24.62406934 12.55624124 31.0880741 8.51953125 37.265625 C3.51749164 43.44663505 -2.16877736 46.74885792 -10 48 C-20.29621711 48.83298308 -29.63152321 47.7652693 -37.9375 41.1875 C-43.22751554 36.17657401 -46.05714995 30.15919608 -46.3125 22.875 C-46.19728585 16.50679958 -44.39541379 10.89215859 -40.3046875 5.953125 C-29.90024948 -3.90371102 -12.90430187 -7.13531986 0 0 Z " fill="#000000" transform="translate(985,237)"/>
<path d="M0 0 C6.38969324 4.42603141 11.11296704 9.32772124 13 17 C14.22371327 25.02473508 12.64213231 31.35172006 8 38 C2.27671824 44.3089199 -4.48062874 47.55347262 -12.9453125 48.23828125 C-22.28724567 48.4563362 -29.43903087 46.8717213 -37.375 41.875 C-43.5872269 35.07113244 -45.88914179 28.40148366 -45.4765625 19.18359375 C-44.43807402 12.24615019 -41.66997709 6.97443423 -36.1875 2.5625 C-34.81775611 1.66709335 -33.4219819 0.80988819 -32 0 C-31.41734375 -0.33902344 -30.8346875 -0.67804688 -30.234375 -1.02734375 C-21.57756868 -5.11109804 -8.3480006 -4.72050129 0 0 Z " fill="#000000" transform="translate(1347,237)"/>
<path d="M0 0 C8.79076146 -0.34125627 16.82504326 1.53377758 23.765625 7.15234375 C27.59231167 11.08245438 27.79938617 12.3549108 28.765625 18.15234375 C10.945625 18.15234375 -6.874375 18.15234375 -25.234375 18.15234375 C-24.08512176 12.40607757 -22.54755211 9.9534938 -18.234375 6.15234375 C-12.33630116 2.42422576 -6.94425312 0.4734718 0 0 Z " fill="#000000" transform="translate(2264.234375,231.84765625)"/>
<path d="M0 0 C8.79076146 -0.34125627 16.82504326 1.53377758 23.765625 7.15234375 C27.59231167 11.08245438 27.79938617 12.3549108 28.765625 18.15234375 C10.945625 18.15234375 -6.874375 18.15234375 -25.234375 18.15234375 C-24.08512176 12.40607757 -22.54755211 9.9534938 -18.234375 6.15234375 C-12.33630116 2.42422576 -6.94425312 0.4734718 0 0 Z " fill="#000000" transform="translate(1675.234375,231.84765625)"/>
<path d="M0 0 C8.79076146 -0.34125627 16.82504326 1.53377758 23.765625 7.15234375 C27.59231167 11.08245438 27.79938617 12.3549108 28.765625 18.15234375 C10.945625 18.15234375 -6.874375 18.15234375 -25.234375 18.15234375 C-24.08512176 12.40607757 -22.54755211 9.9534938 -18.234375 6.15234375 C-12.33630116 2.42422576 -6.94425312 0.4734718 0 0 Z " fill="#000000" transform="translate(1193.234375,231.84765625)"/>
</svg>
