<svg xmlns="http://www.w3.org/2000/svg" xmlns:xlink="http://www.w3.org/1999/xlink" zoomAndPan="magnify" preserveAspectRatio="xMidYMid meet" version="1.0" viewBox="401.52 404.31 637.02 637.02"><defs><g/></defs><g fill="#8c52ff" fill-opacity="1"><g transform="translate(1070.382372, 404.311929)"><g><path d="M -668.859375 637.015625 L -668.859375 547.828125 C -668.859375 529.773438 -662.488281 514.378906 -649.75 501.640625 L -466.609375 318.5 L -649.75 135.359375 C -662.488281 122.617188 -668.859375 107.226562 -668.859375 89.1875 L -668.859375 0 L -541.453125 0 L -541.453125 63.703125 L -350.359375 254.8125 L -159.25 63.703125 L -159.25 0 L -31.84375 0 L -31.84375 89.1875 C -31.84375 107.226562 -38.21875 122.617188 -50.96875 135.359375 L -234.109375 318.5 L -50.96875 501.640625 C -38.21875 514.378906 -31.84375 529.773438 -31.84375 547.828125 L -31.84375 637.015625 L -159.25 637.015625 L -159.25 573.3125 L -350.359375 382.203125 L -541.453125 573.3125 L -541.453125 637.015625 Z M -668.859375 637.015625 "/></g></g></g></svg>